<svg width="133" height="27" viewBox="0 0 133 27" fill="none" xmlns="http://www.w3.org/2000/svg">
<path fill-rule="evenodd" clip-rule="evenodd" d="M68.2766 12.8098C67.182 12.8098 66.393 13.1692 65.5929 13.5353V21.82C66.3592 21.8931 66.7985 21.8931 67.5256 21.8931C70.153 21.8931 70.5131 20.6884 70.5131 19.0064V15.0496C70.5131 13.8074 70.1014 12.8098 68.2766 12.8098ZM50.8277 12.3577C49.0048 12.3577 48.5888 13.3596 48.5888 14.6005V15.2978H53.0642V14.6005C53.0642 13.3596 52.6482 12.3577 50.8277 12.3577ZM17.0258 20.9808C17.0258 21.9625 17.4884 22.4724 18.5094 22.4724C19.6046 22.4724 20.2532 22.1149 21.0527 21.7475V19.7823H18.6579C17.524 19.7823 17.0258 19.9936 17.0258 20.9808ZM85.25 12.8098C83.424 12.8098 82.7914 13.8074 82.7914 15.0496V19.5827C82.7914 20.8279 83.424 21.8286 85.25 21.8286C87.0711 21.8286 87.7086 20.8279 87.7086 19.5827V15.0496C87.708 13.8074 87.0705 12.8098 85.25 12.8098ZM8.07735 26.0637H2.70978V13.0561H0.027832V8.57407H2.71039V5.88213C2.71039 2.2251 4.22409 0.0510254 8.52649 0.0510254H12.1086V4.53432H9.86961C8.19455 4.53432 8.0841 5.16092 8.0841 6.32997L8.07735 8.57346H12.1331L11.6588 13.0555H8.07735V26.0637ZM26.4215 26.0975H21.9479L21.7546 24.9647C19.712 26.0975 17.8891 26.2812 16.6865 26.2812C13.4057 26.2812 11.6594 24.0868 11.6594 21.0521C11.6594 17.4719 13.6971 16.1941 17.3424 16.1941H21.0527V15.42C21.0527 13.5924 20.8434 13.0561 18.0363 13.0561H13.4468L13.8953 8.57407H18.9119C25.071 8.57407 26.4215 10.5221 26.4215 15.4563V26.0975ZM41.6339 13.3848C38.8501 12.9069 38.0506 12.8018 36.7112 12.8018C34.3053 12.8018 33.5782 13.3332 33.5782 15.3789V19.2485C33.5782 21.2941 34.3053 21.828 36.7112 21.828C38.0506 21.828 38.8501 21.7211 41.6339 21.2413V25.6134C39.1955 26.1608 37.607 26.3045 36.2645 26.3045C30.5018 26.3045 28.2113 23.2704 28.2113 18.8872V15.7475C28.2113 11.3606 30.5018 8.32097 36.2645 8.32097C37.607 8.32097 39.1955 8.46534 41.6339 9.01515V13.3848ZM58.4312 18.8872H48.5882V19.2485C48.5882 21.2941 49.3159 21.828 51.7211 21.828C53.8834 21.828 55.2032 21.7211 57.982 21.2413V25.6134C55.3019 26.1608 53.9054 26.3045 51.2763 26.3045C45.5129 26.3045 43.2212 23.2704 43.2212 18.8872V15.2972C43.2212 11.462 44.9214 8.32097 50.8271 8.32097C56.7328 8.32097 58.4312 11.4257 58.4312 15.2972V18.8872ZM75.8795 18.9702C75.8795 23.2065 74.6701 26.2965 67.344 26.2965C64.6983 26.2965 63.1465 26.0637 60.2265 25.614V1.39761L65.5922 0.50132V8.97215C66.7519 8.5409 68.2527 8.32159 69.6185 8.32159C74.9849 8.32159 75.8789 10.7303 75.8789 14.6011V18.9702H75.8795ZM93.0799 19.0623C93.0799 22.7169 91.5729 26.2615 85.2678 26.2615C78.9596 26.2615 77.4245 22.7169 77.4245 19.0623V15.5337C77.4245 11.8773 78.9596 8.33203 85.2678 8.33203C91.5729 8.33203 93.0799 11.8773 93.0799 15.5337V19.0623ZM110.269 19.0623C110.269 22.7169 108.76 26.2615 102.456 26.2615C96.1478 26.2615 94.6126 22.7169 94.6126 19.0623V15.5337C94.6126 11.8773 96.1478 8.33203 102.456 8.33203C108.76 8.33203 110.269 11.8773 110.269 15.5337V19.0623ZM127.908 26.0637H122.092L117.173 17.8423V26.0637H111.806V1.397L117.173 0.500706V16.3802L122.092 8.57407H127.908L122.538 17.0928L127.908 26.0637ZM102.438 12.8098C100.615 12.8098 99.982 13.8074 99.982 15.0496V19.5827C99.982 20.8279 100.615 21.8286 102.438 21.8286C104.258 21.8286 104.902 20.8279 104.902 19.5827V15.0496C104.902 13.8074 104.258 12.8098 102.438 12.8098ZM130.972 22.9958C131.876 22.9958 132.596 23.7336 132.596 24.6551C132.596 25.5907 131.875 26.3205 130.965 26.3205C130.06 26.3205 129.325 25.5907 129.325 24.6551C129.325 23.7336 130.06 22.9958 130.965 22.9958H130.972ZM130.965 23.2538C130.237 23.2538 129.641 23.881 129.641 24.6551C129.641 25.4432 130.238 26.0625 130.972 26.0625C131.707 26.0698 132.294 25.4432 132.294 24.6624C132.294 23.8816 131.707 23.2538 130.972 23.2538H130.965ZM130.657 25.6208H130.362V23.7692C130.517 23.7477 130.664 23.7262 130.885 23.7262C131.165 23.7262 131.347 23.7852 131.46 23.8657C131.568 23.9474 131.627 24.0721 131.627 24.2484C131.627 24.4929 131.466 24.6397 131.268 24.6993V24.7134C131.429 24.7435 131.539 24.8897 131.576 25.1619C131.619 25.45 131.664 25.56 131.693 25.6202H131.384C131.341 25.56 131.296 25.391 131.259 25.1471C131.216 24.9119 131.097 24.8234 130.862 24.8234H130.657V25.6208H130.657ZM130.657 24.5961H130.87C131.112 24.5961 131.317 24.507 131.317 24.2779C131.317 24.1157 131.201 23.9541 130.87 23.9541C130.774 23.9541 130.707 23.9615 130.657 23.9683V24.5961Z" fill="#C4C4C4"/>
</svg>
