<svg width="58" height="58" viewBox="0 0 58 58" fill="none" xmlns="http://www.w3.org/2000/svg">
<path fill-rule="evenodd" clip-rule="evenodd" d="M29 58C45.0163 58 58 45.0163 58 29C58 12.9837 45.0163 0 29 0C12.9837 0 0 12.9837 0 29C0 45.0163 12.9837 58 29 58Z" fill="#FFC107"/>
<path d="M37.0123 36.04V40H21.1423V36.85L29.2423 29.2C30.1023 28.38 30.6823 27.68 30.9823 27.1C31.2823 26.5 31.4323 25.91 31.4323 25.33C31.4323 24.49 31.1423 23.85 30.5623 23.41C30.0023 22.95 29.1723 22.72 28.0723 22.72C27.1523 22.72 26.3223 22.9 25.5823 23.26C24.8423 23.6 24.2223 24.12 23.7223 24.82L20.1823 22.54C21.0023 21.32 22.1323 20.37 23.5723 19.69C25.0123 18.99 26.6623 18.64 28.5223 18.64C30.0823 18.64 31.4423 18.9 32.6023 19.42C33.7823 19.92 34.6923 20.64 35.3323 21.58C35.9923 22.5 36.3223 23.59 36.3223 24.85C36.3223 25.99 36.0823 27.06 35.6023 28.06C35.1223 29.06 34.1923 30.2 32.8123 31.48L27.9823 36.04H37.0123Z" fill="white"/>
</svg>
