<svg width="58" height="58" viewBox="0 0 58 58" fill="none" xmlns="http://www.w3.org/2000/svg">
<path fill-rule="evenodd" clip-rule="evenodd" d="M29 58C45.0163 58 58 45.0163 58 29C58 12.9837 45.0163 0 29 0C12.9837 0 0 12.9837 0 29C0 45.0163 12.9837 58 29 58Z" fill="#20C997"/>
<path d="M31.103 27.55C32.943 27.85 34.353 28.54 35.333 29.62C36.313 30.68 36.803 32 36.803 33.58C36.803 34.8 36.483 35.93 35.843 36.97C35.203 37.99 34.223 38.81 32.903 39.43C31.603 40.05 30.003 40.36 28.103 40.36C26.623 40.36 25.163 40.17 23.723 39.79C22.303 39.39 21.093 38.83 20.093 38.11L21.983 34.39C22.783 34.99 23.703 35.46 24.743 35.8C25.803 36.12 26.883 36.28 27.983 36.28C29.203 36.28 30.163 36.05 30.863 35.59C31.563 35.11 31.913 34.44 31.913 33.58C31.913 31.86 30.603 31 27.983 31H25.763V27.79L30.083 22.9H21.143V19H35.843V22.15L31.103 27.55Z" fill="white"/>
</svg>
