<svg width="16" height="16" viewBox="0 0 16 16" fill="none" xmlns="http://www.w3.org/2000/svg">
<path fill-rule="evenodd" clip-rule="evenodd" d="M10.5 1.33331C10.7531 1.33331 10.9623 1.52142 10.9954 1.76547L11 1.83331V2.66665H11.8333C12.8459 2.66665 13.6667 3.48746 13.6667 4.49998V7.16665V12.5C13.6667 13.5125 12.8459 14.3333 11.8333 14.3333H3.83333C2.82081 14.3333 2 13.5125 2 12.5V7.16665V4.49998C2 3.48746 2.82081 2.66665 3.83333 2.66665H4.66667V1.83331C4.66667 1.55717 4.89052 1.33331 5.16667 1.33331C5.4198 1.33331 5.62899 1.52142 5.6621 1.76547L5.66667 1.83331V2.66665H10V1.83331C10 1.55717 10.2239 1.33331 10.5 1.33331ZM12.6667 4.49998V6.66665H3V4.49998C3 4.03974 3.3731 3.66665 3.83333 3.66665H4.66667V4.49998L4.67123 4.56783C4.70434 4.81188 4.91354 4.99998 5.16667 4.99998C5.44281 4.99998 5.66667 4.77612 5.66667 4.49998V3.66665H10V4.49998L10.0046 4.56783C10.0377 4.81188 10.2469 4.99998 10.5 4.99998C10.7761 4.99998 11 4.77612 11 4.49998V3.66665H11.8333C12.2936 3.66665 12.6667 4.03974 12.6667 4.49998ZM12.6667 7.66665H3V12.5C3 12.9602 3.3731 13.3333 3.83333 13.3333H11.8333C12.2936 13.3333 12.6667 12.9602 12.6667 12.5V7.66665ZM6.5 9.33331H5.16667C4.89052 9.33331 4.66667 9.55717 4.66667 9.83331V11.1666C4.66667 11.4428 4.89052 11.6666 5.16667 11.6666H6.5C6.77614 11.6666 7 11.4428 7 11.1666V9.83331C7 9.55717 6.77614 9.33331 6.5 9.33331ZM6 10.3333V10.6666H5.66667V10.3333H6Z" fill="#0D6EFD"/>
</svg>
