<svg width="81" height="25" viewBox="0 0 81 25" fill="none" xmlns="http://www.w3.org/2000/svg">
<path fill-rule="evenodd" clip-rule="evenodd" d="M35.0411 24.5609H28.4529L32.5704 0.436921H39.1593L35.0411 24.5609ZM22.9104 0.436921L16.6295 17.0296L15.8863 13.4565L15.887 13.4578L13.6702 2.60901C13.6702 2.60901 13.4021 0.436921 10.5449 0.436921H0.161392L0.0395508 0.845397C0.0395508 0.845397 3.21486 1.47521 6.93101 3.60277L12.6548 24.5615H19.5192L30.0009 0.436921H22.9104ZM74.7301 24.5609H80.7795L75.5051 0.436276H70.2091C67.7635 0.436276 67.1678 2.23409 67.1678 2.23409L57.342 24.5609H64.2098L65.5832 20.9775H73.9584L74.7301 24.5609ZM67.4805 16.0274L70.9422 6.99964L72.8896 16.0274H67.4805ZM57.8571 6.23818L58.7973 1.0577C58.7973 1.0577 55.8962 0.00585938 52.8718 0.00585938C49.6024 0.00585938 41.8384 1.36809 41.8384 7.99211C41.8384 14.2244 50.9508 14.3019 50.9508 17.5755C50.9508 20.8491 42.7773 20.2625 40.0799 18.1982L39.1004 23.6149C39.1004 23.6149 42.0422 24.9771 46.5368 24.9771C51.0327 24.9771 57.8152 22.7579 57.8152 16.7179C57.8152 10.4455 48.6209 9.86155 48.6209 7.13451C48.6216 4.40682 55.0379 4.75722 57.8571 6.23818Z" fill="#C4C4C4"/>
</svg>
